<?xml version="1.0" encoding="UTF-8" standalone="yes"?><svg xmlns="http://www.w3.org/2000/svg" xmlns:xlink="http://www.w3.org/1999/xlink" height="981pt" style="width:435px;height:981px;" version="1.1" viewBox="0 0 435 981" width="435pt"><defs><filter height="300%" id="f1" width="300%" x="-1" y="-1"><feGaussianBlur result="blurOut" stdDeviation="2.0"/><feColorMatrix in="blurOut" result="blurOut2" type="matrix" values="0 0 0 0 0 0 0 0 0 0 0 0 0 0 0 0 0 0 .4 0"/><feOffset dx="4.0" dy="4.0" in="blurOut2" result="blurOut3"/><feBlend in="SourceGraphic" in2="blurOut3" mode="normal"/></filter></defs><g><polygon fill="#FFFFFF" filter="url(#f1)" points="50.879,26.5,60.879,16.5,277.879,16.5,277.879,847,267.879,857,50.879,857,50.879,26.5" style="stroke: #000000; stroke-width: 2.0;"/><line style="stroke: #000000; stroke-width: 2.0;" x1="267.879" x2="276.879" y1="26.5" y2="17.5"/><line style="stroke: #000000; stroke-width: 2.0;" x1="50.879" x2="267.879" y1="26.5" y2="26.5"/><line style="stroke: #000000; stroke-width: 2.0;" x1="267.879" x2="267.879" y1="26.5" y2="857"/><text fill="#000000" font-family="sans-serif" font-size="14" font-weight="bold" lengthAdjust="spacingAndGlyphs" textLength="41" x="139.879" y="44.0332">Client</text><polygon fill="#FFFFFF" filter="url(#f1)" points="72.879,678,134.879,678,141.879,701.6094,223.879,701.6094,223.879,849,72.879,849,72.879,678" style="stroke: #000000; stroke-width: 2.0;"/><line style="stroke: #000000; stroke-width: 2.0;" x1="72.879" x2="141.879" y1="701.6094" y2="701.6094"/><text fill="#000000" font-family="sans-serif" font-size="14" font-weight="bold" lengthAdjust="spacingAndGlyphs" textLength="56" x="76.879" y="694.5332">Mumble</text><polygon fill="#FFFFFF" filter="url(#f1)" points="290.879,153.5,300.879,143.5,430.879,143.5,430.879,212.5,420.879,222.5,290.879,222.5,290.879,153.5" style="stroke: #000000; stroke-width: 2.0;"/><line style="stroke: #000000; stroke-width: 2.0;" x1="420.879" x2="429.879" y1="153.5" y2="144.5"/><line style="stroke: #000000; stroke-width: 2.0;" x1="290.879" x2="420.879" y1="153.5" y2="153.5"/><line style="stroke: #000000; stroke-width: 2.0;" x1="420.879" x2="420.879" y1="153.5" y2="222.5"/><text fill="#000000" font-family="sans-serif" font-size="14" font-weight="bold" lengthAdjust="spacingAndGlyphs" textLength="48" x="332.879" y="171.0332">Server</text><polygon fill="#FFFFFF" filter="url(#f1)" points="16.879,907,26.879,897,148.879,897,148.879,966,138.879,976,16.879,976,16.879,907" style="stroke: #000000; stroke-width: 2.0;"/><line style="stroke: #000000; stroke-width: 2.0;" x1="138.879" x2="147.879" y1="907" y2="898"/><line style="stroke: #000000; stroke-width: 2.0;" x1="16.879" x2="138.879" y1="907" y2="907"/><line style="stroke: #000000; stroke-width: 2.0;" x1="138.879" x2="138.879" y1="907" y2="976"/><text fill="#000000" font-family="sans-serif" font-size="14" font-weight="bold" lengthAdjust="spacingAndGlyphs" textLength="48" x="54.879" y="924.5332">Server</text><rect fill="#FEFECE" filter="url(#f1)" height="37.6094" style="stroke: #A80036; stroke-width: 1.5;" width="78" x="185.879" y="49.5"/><rect fill="#FEFECE" height="5" style="stroke: #A80036; stroke-width: 1.5;" width="10" x="180.879" y="54.5"/><rect fill="#FEFECE" height="5" style="stroke: #A80036; stroke-width: 1.5;" width="10" x="180.879" y="77.1094"/><text fill="#000000" font-family="sans-serif" font-size="14" lengthAdjust="spacingAndGlyphs" textLength="58" x="195.879" y="74.0332">Minecraft</text><rect fill="#FEFECE" filter="url(#f1)" height="55.2188" style="stroke: #A80036; stroke-width: 1.5;" width="107" x="156.379" y="168"/><rect fill="#FEFECE" height="5" style="stroke: #A80036; stroke-width: 1.5;" width="10" x="151.379" y="173"/><rect fill="#FEFECE" height="5" style="stroke: #A80036; stroke-width: 1.5;" width="10" x="151.379" y="213.2188"/><text fill="#000000" font-family="sans-serif" font-size="14" font-style="italic" lengthAdjust="spacingAndGlyphs" textLength="87" x="166.379" y="192.5332">&lt;&lt;Mod-API&gt;&gt;</text><text fill="#000000" font-family="sans-serif" font-size="14" lengthAdjust="spacingAndGlyphs" textLength="28" x="195.879" y="210.1426">FML</text><rect fill="#FEFECE" filter="url(#f1)" height="55.2188" style="stroke: #A80036; stroke-width: 1.5;" width="107" x="59.379" y="301"/><rect fill="#FEFECE" height="5" style="stroke: #A80036; stroke-width: 1.5;" width="10" x="54.379" y="306"/><rect fill="#FEFECE" height="5" style="stroke: #A80036; stroke-width: 1.5;" width="10" x="54.379" y="346.2188"/><text fill="#000000" font-family="sans-serif" font-size="14" font-style="italic" lengthAdjust="spacingAndGlyphs" textLength="87" x="69.379" y="325.5332">&lt;&lt;Mod-API&gt;&gt;</text><text fill="#000000" font-family="sans-serif" font-size="14" lengthAdjust="spacingAndGlyphs" textLength="38" x="93.879" y="343.1426">Forge</text><rect fill="#FEFECE" filter="url(#f1)" height="55.2188" style="stroke: #A80036; stroke-width: 1.5;" width="95" x="83.379" y="434"/><rect fill="#FEFECE" height="5" style="stroke: #A80036; stroke-width: 1.5;" width="10" x="78.379" y="439"/><rect fill="#FEFECE" height="5" style="stroke: #A80036; stroke-width: 1.5;" width="10" x="78.379" y="479.2188"/><text fill="#000000" font-family="sans-serif" font-size="14" font-style="italic" lengthAdjust="spacingAndGlyphs" textLength="60" x="100.879" y="458.5332">&lt;&lt;Mod&gt;&gt;</text><text fill="#000000" font-family="sans-serif" font-size="14" lengthAdjust="spacingAndGlyphs" textLength="75" x="93.379" y="476.1426">MumbleLink</text><rect fill="#FEFECE" filter="url(#f1)" height="55.2188" style="stroke: #A80036; stroke-width: 1.5;" width="98" x="81.879" y="567"/><rect fill="#FEFECE" height="5" style="stroke: #A80036; stroke-width: 1.5;" width="10" x="76.879" y="572"/><rect fill="#FEFECE" height="5" style="stroke: #A80036; stroke-width: 1.5;" width="10" x="76.879" y="612.2188"/><text fill="#000000" font-family="sans-serif" font-size="14" font-style="italic" lengthAdjust="spacingAndGlyphs" textLength="78" x="91.879" y="591.5332">&lt;&lt;Natives&gt;&gt;</text><text fill="#000000" font-family="sans-serif" font-size="14" lengthAdjust="spacingAndGlyphs" textLength="47" x="107.379" y="609.1426">LinkAPI</text><rect fill="#FEFECE" filter="url(#f1)" height="37.6094" style="stroke: #A80036; stroke-width: 1.5;" width="109" x="81.379" y="803"/><rect fill="#FEFECE" height="5" style="stroke: #A80036; stroke-width: 1.5;" width="10" x="76.379" y="808"/><rect fill="#FEFECE" height="5" style="stroke: #A80036; stroke-width: 1.5;" width="10" x="76.379" y="830.6094"/><text fill="#000000" font-family="sans-serif" font-size="14" lengthAdjust="spacingAndGlyphs" textLength="89" x="91.379" y="827.5332">Mumble Client</text><ellipse cx="130.879" cy="715" fill="#FEFECE" filter="url(#f1)" rx="8" ry="8" style="stroke: #A80036; stroke-width: 2.0;"/><text fill="#000000" font-family="sans-serif" font-size="14" lengthAdjust="spacingAndGlyphs" textLength="100" x="80.879" y="738.5332">Link Plugin v1.2</text><rect fill="#FEFECE" filter="url(#f1)" height="37.6094" style="stroke: #A80036; stroke-width: 1.5;" width="124" x="298.879" y="176.5"/><rect fill="#FEFECE" height="5" style="stroke: #A80036; stroke-width: 1.5;" width="10" x="293.879" y="181.5"/><rect fill="#FEFECE" height="5" style="stroke: #A80036; stroke-width: 1.5;" width="10" x="293.879" y="204.1094"/><text fill="#000000" font-family="sans-serif" font-size="14" lengthAdjust="spacingAndGlyphs" textLength="104" x="308.879" y="201.0332">Minecraft Server</text><rect fill="#FEFECE" filter="url(#f1)" height="37.6094" style="stroke: #A80036; stroke-width: 1.5;" width="115" x="25.379" y="930"/><rect fill="#FEFECE" height="5" style="stroke: #A80036; stroke-width: 1.5;" width="10" x="20.379" y="935"/><rect fill="#FEFECE" height="5" style="stroke: #A80036; stroke-width: 1.5;" width="10" x="20.379" y="957.6094"/><text fill="#000000" font-family="sans-serif" font-size="14" lengthAdjust="spacingAndGlyphs" textLength="95" x="35.379" y="954.5332">Mumble Server</text><path d="M222.698,87.676 C220.356,107.191 216.589,138.583 213.743,162.299 " fill="none" style="stroke: #A80036; stroke-width: 1.0;"/><polygon fill="#A80036" points="213.114,167.539,218.1578,159.0797,213.7097,162.5746,210.2148,158.1265,213.114,167.539" style="stroke: #A80036; stroke-width: 1.0;"/><path d="M210.759,223.192 C210.828,237.454 210.273,255.267 207.879,271 C198.469,332.835 189.971,348.117 161.879,404 C157.681,412.35 152.923,421.267 148.416,429.491 " fill="none" style="stroke: #A80036; stroke-width: 1.0;"/><polygon fill="#A80036" points="145.943,433.98,153.7892,428.027,148.3556,429.6005,146.782,424.1669,145.943,433.98" style="stroke: #A80036; stroke-width: 1.0;"/><text fill="#000000" font-family="sans-serif" font-size="13" lengthAdjust="spacingAndGlyphs" textLength="31" x="202.879" y="333.9951">loads</text><path d="M190.25,223.01 C174.511,244.265 152.395,274.134 135.836,296.496 " fill="none" style="stroke: #A80036; stroke-width: 1.0;"/><polygon fill="#A80036" points="132.812,300.58,141.3825,295.7275,135.7875,296.5617,134.9533,290.9667,132.812,300.58" style="stroke: #A80036; stroke-width: 1.0;"/><text fill="#000000" font-family="sans-serif" font-size="13" lengthAdjust="spacingAndGlyphs" textLength="31" x="167.879" y="267.4951">loads</text><path d="M117.233,361.19 C120.275,383.329 124.293,412.569 127.18,433.58 " fill="none" style="stroke: #A80036; stroke-width: 1.0;"/><polygon fill="#A80036" points="116.522,356.01,113.786,365.4712,117.2035,360.9633,121.7114,364.3808,116.522,356.01" style="stroke: #A80036; stroke-width: 1.0;"/><text fill="#000000" font-family="sans-serif" font-size="13" lengthAdjust="spacingAndGlyphs" textLength="28" x="124.879" y="400.4951">uses</text><path d="M130.879,489.01 C130.879,509.912 130.879,539.144 130.879,561.376 " fill="none" style="stroke: #A80036; stroke-width: 1.0;"/><polygon fill="#A80036" points="130.879,566.58,134.879,557.58,130.879,561.58,126.879,557.58,130.879,566.58" style="stroke: #A80036; stroke-width: 1.0;"/><text fill="#000000" font-family="sans-serif" font-size="13" lengthAdjust="spacingAndGlyphs" textLength="123" x="131.879" y="533.4951">sends positional data</text><path d="M130.879,622.228 C130.879,645.483 130.879,678.797 130.879,700.659 " fill="none" style="stroke: #A80036; stroke-width: 1.0;"/><polygon fill="#A80036" points="130.879,705.685,134.879,696.685,130.879,700.685,126.879,696.685,130.879,705.685" style="stroke: #A80036; stroke-width: 1.0;"/><text fill="#000000" font-family="sans-serif" font-size="13" lengthAdjust="spacingAndGlyphs" textLength="123" x="131.879" y="666.4951">sends positional data</text><path d="M131.773,742.163 C132.661,759.205 134.017,785.242 134.925,802.678 " fill="none" style="stroke: #A80036; stroke-width: 1.0;"/><path d="M244.655,87.676 C269.231,110.264 311.121,148.766 337.33,172.856 " fill="none" style="stroke: #A80036; stroke-width: 1.0;"/><polygon fill="#A80036" points="341.08,176.302,337.1614,167.2663,337.399,172.9181,331.7472,173.1558,341.08,176.302" style="stroke: #A80036; stroke-width: 1.0;"/><text fill="#000000" font-family="sans-serif" font-size="13" lengthAdjust="spacingAndGlyphs" textLength="53" x="297.879" y="131.9951">connects</text><path d="M81.2259,829.704 C55.3685,835.926 26.7437,847.914 10.879,871 C-3.4165,891.8027 18.5879,912.5392 41.9292,927.2432 " fill="none" style="stroke: #A80036; stroke-width: 1.0;"/><polygon fill="#A80036" points="46.2946,929.9172,40.7093,921.8052,42.0309,927.3055,36.5306,928.6271,46.2946,929.9172" style="stroke: #A80036; stroke-width: 1.0;"/><text fill="#000000" font-family="sans-serif" font-size="13" lengthAdjust="spacingAndGlyphs" textLength="150" x="11.879" y="885.4951">sends own positional data</text><path d="M157.078,845.344 C166.652,858.23 174.326,874.669 166.879,889 C157.676,906.7112 140.447,920.218 123.977,929.8093 " fill="none" style="stroke: #A80036; stroke-width: 1.0;"/><polygon fill="#A80036" points="153.777,841.118,156.1664,850.6726,156.8555,845.0579,162.4702,845.747,153.777,841.118" style="stroke: #A80036; stroke-width: 1.0;"/><text fill="#000000" font-family="sans-serif" font-size="13" lengthAdjust="spacingAndGlyphs" textLength="177" x="169.879" y="885.4951">receives other's positional data</text></g></svg>